<svg width="662" height="318" viewBox="0 0 662 318" fill="none" xmlns="http://www.w3.org/2000/svg">
<mask id="path-1-outside-1_122_95" maskUnits="userSpaceOnUse" x="17" y="9" width="626" height="301" fill="black">
<rect fill="white" x="17" y="9" width="626" height="301"/>
<path fill-rule="evenodd" clip-rule="evenodd" d="M565.963 192H575C602.614 192 625 214.386 625 242C625 269.614 602.614 292 575 292H85C57.3858 292 35 269.614 35 242C35 214.386 57.3858 192 85 192H94.0369C96.2852 100.6 201.068 27 330 27C458.932 27 563.715 100.6 565.963 192Z"/>
</mask>
<path fill-rule="evenodd" clip-rule="evenodd" d="M565.963 192H575C602.614 192 625 214.386 625 242C625 269.614 602.614 292 575 292H85C57.3858 292 35 269.614 35 242C35 214.386 57.3858 192 85 192H94.0369C96.2852 100.6 201.068 27 330 27C458.932 27 563.715 100.6 565.963 192Z" fill="#FA6262"/>
<path d="M565.963 192L547.969 192.443L548.4 210H565.963V192ZM94.0369 192V210H111.6L112.031 192.443L94.0369 192ZM565.963 210H575V174H565.963V210ZM575 210C592.673 210 607 224.327 607 242H643C643 204.445 612.555 174 575 174V210ZM607 242C607 259.673 592.673 274 575 274V310C612.555 310 643 279.555 643 242H607ZM575 274H85V310H575V274ZM85 274C67.3269 274 53 259.673 53 242H17C17 279.555 47.4446 310 85 310V274ZM53 242C53 224.327 67.3269 210 85 210V174C47.4446 174 17 204.445 17 242H53ZM85 210H94.0369V174H85V210ZM112.031 192.443C112.978 153.958 135.543 117.484 174.837 89.9697C214.078 62.4918 268.809 45 330 45V9C262.259 9 200.133 28.3083 154.188 60.4805C108.295 92.6161 77.3439 138.642 76.0423 191.557L112.031 192.443ZM330 45C391.191 45 445.922 62.4918 485.163 89.9697C524.457 117.484 547.022 153.958 547.969 192.443L583.958 191.557C582.656 138.642 551.705 92.6161 505.812 60.4805C459.867 28.3083 397.741 9 330 9V45Z" fill="white" mask="url(#path-1-outside-1_122_95)"/>
<path d="M593.153 254.454C593.153 257.788 592.288 260.784 590.558 263.441C588.854 266.099 586.347 268.18 583.037 269.684C579.728 271.188 575.805 271.94 571.267 271.94C565.827 271.94 561.339 270.912 557.804 268.856C555.297 267.377 553.254 265.409 551.675 262.953C550.121 260.471 549.343 258.064 549.343 255.732C549.343 254.379 549.807 253.225 550.735 252.273C551.687 251.295 552.891 250.806 554.345 250.806C555.523 250.806 556.513 251.182 557.316 251.934C558.143 252.686 558.845 253.802 559.421 255.281C560.123 257.036 560.876 258.503 561.678 259.681C562.505 260.859 563.658 261.837 565.137 262.614C566.617 263.366 568.559 263.742 570.966 263.742C574.275 263.742 576.958 262.978 579.014 261.448C581.094 259.894 582.135 257.964 582.135 255.657C582.135 253.827 581.571 252.348 580.443 251.22C579.339 250.067 577.898 249.189 576.118 248.587C574.363 247.986 572.007 247.347 569.048 246.67C565.087 245.742 561.766 244.664 559.083 243.436C556.426 242.182 554.307 240.49 552.728 238.359C551.173 236.203 550.396 233.533 550.396 230.349C550.396 227.316 551.224 224.621 552.878 222.264C554.533 219.908 556.927 218.102 560.061 216.849C563.194 215.57 566.88 214.931 571.117 214.931C574.501 214.931 577.422 215.357 579.878 216.21C582.36 217.037 584.416 218.153 586.046 219.557C587.675 220.935 588.866 222.389 589.618 223.919C590.37 225.448 590.746 226.94 590.746 228.394C590.746 229.722 590.27 230.926 589.317 232.004C588.39 233.057 587.224 233.583 585.82 233.583C584.542 233.583 583.564 233.27 582.887 232.643C582.235 231.991 581.521 230.938 580.743 229.484C579.741 227.403 578.537 225.786 577.133 224.633C575.729 223.455 573.473 222.866 570.364 222.866C567.481 222.866 565.15 223.505 563.37 224.784C561.615 226.037 560.738 227.554 560.738 229.334C560.738 230.437 561.038 231.39 561.64 232.192C562.242 232.994 563.069 233.683 564.122 234.26C565.175 234.837 566.24 235.288 567.318 235.614C568.396 235.94 570.176 236.416 572.658 237.043C575.767 237.77 578.575 238.572 581.082 239.45C583.614 240.327 585.757 241.392 587.512 242.646C589.292 243.899 590.671 245.491 591.649 247.422C592.652 249.327 593.153 251.671 593.153 254.454Z" fill="white"/>
<path d="M501.172 215.871H515.725C519.51 215.871 522.757 216.222 525.464 216.924C528.172 217.626 530.629 218.942 532.835 220.873C538.576 225.786 541.446 233.257 541.446 243.285C541.446 246.594 541.158 249.615 540.581 252.348C540.005 255.08 539.115 257.55 537.912 259.756C536.708 261.937 535.166 263.892 533.286 265.622C531.807 266.951 530.19 268.016 528.435 268.819C526.68 269.621 524.787 270.185 522.757 270.511C520.751 270.837 518.482 271 515.95 271H501.397C499.367 271 497.837 270.699 496.809 270.097C495.782 269.471 495.105 268.606 494.779 267.503C494.478 266.374 494.328 264.92 494.328 263.14V222.715C494.328 220.308 494.867 218.566 495.945 217.488C497.023 216.41 498.765 215.871 501.172 215.871ZM505.496 224.708V262.125H513.957C515.812 262.125 517.266 262.075 518.319 261.975C519.372 261.874 520.463 261.624 521.591 261.223C522.719 260.821 523.697 260.257 524.524 259.53C528.26 256.372 530.127 250.931 530.127 243.21C530.127 237.77 529.3 233.696 527.645 230.988C526.016 228.281 523.998 226.563 521.591 225.836C519.184 225.084 516.276 224.708 512.867 224.708H505.496Z" fill="white"/>
<path d="M453.827 247.422H449.916V265.133C449.916 267.465 449.402 269.182 448.374 270.285C447.347 271.388 446.005 271.94 444.351 271.94C442.571 271.94 441.192 271.363 440.214 270.21C439.236 269.057 438.748 267.365 438.748 265.133V222.715C438.748 220.308 439.287 218.566 440.365 217.488C441.443 216.41 443.185 215.871 445.592 215.871H463.755C466.262 215.871 468.405 215.984 470.185 216.21C471.965 216.41 473.57 216.836 474.999 217.488C476.728 218.215 478.258 219.256 479.586 220.609C480.915 221.963 481.918 223.542 482.595 225.348C483.297 227.127 483.648 229.02 483.648 231.026C483.648 235.137 482.482 238.421 480.15 240.878C477.844 243.335 474.334 245.078 469.621 246.105C471.602 247.158 473.494 248.713 475.299 250.768C477.105 252.824 478.709 255.018 480.113 257.349C481.542 259.656 482.645 261.749 483.422 263.629C484.224 265.484 484.625 266.763 484.625 267.465C484.625 268.192 484.387 268.919 483.911 269.646C483.46 270.348 482.833 270.9 482.031 271.301C481.228 271.727 480.301 271.94 479.248 271.94C477.994 271.94 476.942 271.639 476.089 271.037C475.237 270.461 474.497 269.721 473.87 268.819C473.269 267.916 472.441 266.587 471.389 264.833L466.914 257.387C465.309 254.654 463.868 252.573 462.589 251.144C461.336 249.715 460.057 248.738 458.753 248.211C457.45 247.685 455.808 247.422 453.827 247.422ZM460.22 224.257H449.916V239.412H459.919C462.602 239.412 464.858 239.186 466.688 238.735C468.518 238.259 469.909 237.469 470.862 236.366C471.84 235.238 472.329 233.696 472.329 231.74C472.329 230.211 471.94 228.87 471.163 227.717C470.386 226.538 469.308 225.661 467.929 225.084C466.625 224.533 464.056 224.257 460.22 224.257Z" fill="white"/>
<path d="M418.667 264.758L416.034 257.838H393.622L390.989 264.908C389.962 267.666 389.084 269.533 388.357 270.511C387.63 271.464 386.439 271.94 384.785 271.94C383.381 271.94 382.14 271.426 381.062 270.398C379.984 269.37 379.445 268.205 379.445 266.901C379.445 266.149 379.57 265.372 379.821 264.57C380.071 263.767 380.485 262.652 381.062 261.223L395.164 225.423C395.565 224.395 396.041 223.167 396.592 221.738C397.169 220.284 397.771 219.08 398.398 218.128C399.049 217.175 399.889 216.41 400.917 215.834C401.97 215.232 403.261 214.931 404.79 214.931C406.345 214.931 407.636 215.232 408.664 215.834C409.717 216.41 410.556 217.162 411.183 218.09C411.835 219.018 412.374 220.02 412.8 221.098C413.251 222.151 413.816 223.568 414.492 225.348L428.895 260.922C430.023 263.629 430.587 265.597 430.587 266.826C430.587 268.104 430.048 269.283 428.97 270.361C427.917 271.414 426.639 271.94 425.135 271.94C424.257 271.94 423.505 271.777 422.878 271.451C422.252 271.15 421.725 270.737 421.299 270.21C420.873 269.659 420.409 268.831 419.908 267.728C419.431 266.6 419.018 265.61 418.667 264.758ZM396.555 249.452H413.026L404.715 226.701L396.555 249.452Z" fill="white"/>
<path d="M373.353 253.589C373.353 255.344 372.914 257.249 372.037 259.305C371.184 261.336 369.83 263.341 367.975 265.322C366.12 267.277 363.751 268.869 360.868 270.097C357.985 271.326 354.626 271.94 350.79 271.94C347.882 271.94 345.237 271.664 342.855 271.113C340.474 270.561 338.305 269.709 336.35 268.556C334.419 267.377 332.639 265.836 331.01 263.93C329.556 262.2 328.315 260.27 327.287 258.139C326.259 255.983 325.482 253.689 324.955 251.257C324.454 248.826 324.203 246.243 324.203 243.511C324.203 239.073 324.843 235.1 326.121 231.59C327.425 228.08 329.28 225.084 331.687 222.603C334.093 220.096 336.914 218.19 340.148 216.887C343.382 215.583 346.829 214.931 350.489 214.931C354.951 214.931 358.925 215.821 362.41 217.601C365.894 219.381 368.564 221.587 370.42 224.22C372.275 226.827 373.202 229.296 373.202 231.628C373.202 232.906 372.751 234.034 371.849 235.012C370.946 235.99 369.856 236.479 368.577 236.479C367.148 236.479 366.07 236.14 365.343 235.463C364.641 234.787 363.851 233.621 362.974 231.966C361.52 229.234 359.802 227.19 357.822 225.837C355.867 224.483 353.447 223.806 350.564 223.806C345.976 223.806 342.316 225.548 339.584 229.033C336.876 232.518 335.522 237.469 335.522 243.887C335.522 248.174 336.124 251.746 337.327 254.604C338.531 257.437 340.235 259.556 342.442 260.959C344.648 262.363 347.23 263.065 350.188 263.065C353.397 263.065 356.105 262.276 358.311 260.696C360.542 259.092 362.222 256.748 363.35 253.664C363.826 252.21 364.415 251.032 365.117 250.129C365.819 249.202 366.947 248.738 368.502 248.738C369.83 248.738 370.971 249.202 371.924 250.129C372.876 251.057 373.353 252.21 373.353 253.589Z" fill="white"/>
<path d="M279.115 221.7V237.494H303.22V221.7C303.22 219.444 303.721 217.752 304.724 216.623C305.752 215.495 307.093 214.931 308.748 214.931C310.427 214.931 311.781 215.495 312.809 216.623C313.862 217.726 314.388 219.419 314.388 221.7V265.134C314.388 267.415 313.862 269.12 312.809 270.248C311.756 271.376 310.402 271.94 308.748 271.94C307.068 271.94 305.727 271.376 304.724 270.248C303.721 269.095 303.22 267.39 303.22 265.134V246.594H279.115V265.134C279.115 267.415 278.589 269.12 277.536 270.248C276.483 271.376 275.129 271.94 273.474 271.94C271.795 271.94 270.453 271.376 269.451 270.248C268.448 269.095 267.946 267.39 267.946 265.134V221.7C267.946 219.444 268.435 217.752 269.413 216.623C270.416 215.495 271.77 214.931 273.474 214.931C275.154 214.931 276.508 215.495 277.536 216.623C278.589 217.726 279.115 219.419 279.115 221.7Z" fill="white"/>
<path d="M258.395 254.454C258.395 257.788 257.53 260.784 255.8 263.441C254.095 266.099 251.588 268.18 248.279 269.684C244.97 271.188 241.046 271.94 236.509 271.94C231.069 271.94 226.581 270.912 223.046 268.856C220.539 267.377 218.496 265.409 216.917 262.953C215.362 260.471 214.585 258.064 214.585 255.732C214.585 254.379 215.049 253.225 215.976 252.273C216.929 251.295 218.132 250.806 219.587 250.806C220.765 250.806 221.755 251.182 222.557 251.934C223.385 252.686 224.087 253.802 224.663 255.281C225.365 257.036 226.117 258.503 226.919 259.681C227.747 260.859 228.9 261.837 230.379 262.614C231.858 263.366 233.801 263.742 236.208 263.742C239.517 263.742 242.2 262.978 244.255 261.448C246.336 259.894 247.377 257.964 247.377 255.657C247.377 253.827 246.812 252.348 245.684 251.22C244.581 250.067 243.14 249.189 241.36 248.587C239.605 247.986 237.248 247.347 234.29 246.67C230.329 245.742 227.007 244.664 224.325 243.436C221.667 242.182 219.549 240.49 217.97 238.359C216.415 236.203 215.638 233.533 215.638 230.349C215.638 227.316 216.465 224.621 218.12 222.264C219.775 219.908 222.169 218.102 225.302 216.849C228.436 215.57 232.121 214.931 236.358 214.931C239.743 214.931 242.663 215.357 245.12 216.21C247.602 217.037 249.658 218.153 251.287 219.557C252.917 220.935 254.108 222.389 254.86 223.919C255.612 225.448 255.988 226.94 255.988 228.394C255.988 229.722 255.512 230.926 254.559 232.004C253.631 233.057 252.466 233.583 251.062 233.583C249.783 233.583 248.805 233.27 248.129 232.643C247.477 231.991 246.762 230.938 245.985 229.484C244.982 227.403 243.779 225.786 242.375 224.633C240.971 223.455 238.715 222.866 235.606 222.866C232.723 222.866 230.392 223.505 228.612 224.784C226.857 226.037 225.979 227.554 225.979 229.334C225.979 230.437 226.28 231.39 226.882 232.192C227.484 232.994 228.311 233.683 229.364 234.26C230.417 234.837 231.482 235.288 232.56 235.614C233.638 235.94 235.418 236.416 237.9 237.043C241.009 237.77 243.817 238.572 246.324 239.45C248.856 240.327 250.999 241.392 252.754 242.646C254.534 243.899 255.913 245.491 256.891 247.422C257.893 249.327 258.395 251.671 258.395 254.454Z" fill="white"/>
<path d="M196.347 264.758L193.714 257.838H171.302L168.67 264.908C167.642 267.666 166.764 269.533 166.037 270.511C165.31 271.464 164.119 271.94 162.465 271.94C161.061 271.94 159.82 271.426 158.742 270.398C157.664 269.37 157.125 268.205 157.125 266.901C157.125 266.149 157.25 265.372 157.501 264.57C157.752 263.767 158.165 262.652 158.742 261.223L172.844 225.423C173.245 224.395 173.721 223.167 174.273 221.738C174.849 220.284 175.451 219.08 176.078 218.128C176.73 217.175 177.569 216.41 178.597 215.834C179.65 215.232 180.941 214.931 182.471 214.931C184.025 214.931 185.316 215.232 186.344 215.834C187.397 216.41 188.237 217.162 188.863 218.09C189.515 219.018 190.054 220.02 190.48 221.098C190.932 222.151 191.496 223.568 192.173 225.348L206.575 260.922C207.703 263.629 208.267 265.597 208.267 266.826C208.267 268.104 207.728 269.283 206.65 270.361C205.598 271.414 204.319 271.94 202.815 271.94C201.937 271.94 201.185 271.777 200.558 271.451C199.932 271.15 199.405 270.737 198.979 270.21C198.553 269.659 198.089 268.831 197.588 267.728C197.111 266.6 196.698 265.61 196.347 264.758ZM174.235 249.452H190.706L182.395 226.701L174.235 249.452Z" fill="white"/>
<path d="M126.515 221.7V261.824H149.153C150.958 261.824 152.337 262.263 153.289 263.141C154.267 264.018 154.756 265.121 154.756 266.45C154.756 267.804 154.279 268.907 153.327 269.759C152.374 270.586 150.983 271 149.153 271H122.19C119.758 271 118.003 270.461 116.925 269.383C115.872 268.305 115.346 266.563 115.346 264.156V221.7C115.346 219.444 115.847 217.752 116.85 216.623C117.878 215.495 119.219 214.931 120.874 214.931C122.554 214.931 123.907 215.495 124.935 216.623C125.988 217.726 126.515 219.419 126.515 221.7Z" fill="white"/>
<path d="M101.959 224.483H79.9598V238.584H98.3485C100.053 238.584 101.319 238.973 102.147 239.75C102.999 240.502 103.425 241.518 103.425 242.796C103.425 244.075 102.999 245.09 102.147 245.842C101.294 246.594 100.028 246.97 98.3485 246.97H79.9598V265.133C79.9598 267.44 79.4333 269.157 78.3804 270.285C77.3525 271.388 76.0238 271.94 74.3943 271.94C72.7396 271.94 71.3859 271.376 70.3329 270.248C69.3051 269.12 68.7911 267.415 68.7911 265.133V222.715C68.7911 221.111 69.0293 219.807 69.5056 218.804C69.982 217.776 70.7215 217.037 71.7243 216.586C72.7522 216.109 74.0558 215.871 75.6352 215.871H101.959C103.739 215.871 105.055 216.272 105.907 217.074C106.785 217.852 107.223 218.879 107.223 220.158C107.223 221.462 106.785 222.515 105.907 223.317C105.055 224.094 103.739 224.483 101.959 224.483Z" fill="white"/>
<path d="M514.685 179.654L514.698 179.64L514.711 179.626C519.816 174.176 523.71 168.48 526.216 162.518C528.684 156.731 530.048 151.069 530.048 145.599C530.048 140.53 528.226 136.018 524.589 132.476C521.04 129.02 516.629 127.226 511.675 127.226C506.528 127.226 501.566 128.81 498.284 133.121C495.984 136.087 494.22 139.719 492.867 143.82C490.323 150.73 486.7 155.603 482.184 158.852C477.752 162.023 472.129 163.769 464.965 163.769C458.407 163.769 452.97 162.227 448.428 159.336C443.999 156.517 440.369 152.157 437.689 145.851C435.027 139.524 433.559 131.268 433.559 120.853C433.559 105.239 436.863 94.1105 442.648 86.6592C448.432 79.2886 455.994 75.6356 465.924 75.6356C472.32 75.6356 477.233 77.1259 481.02 79.7481L481.035 79.7582L481.05 79.7683C485.102 82.5382 488.896 86.9106 492.277 93.2639C494.591 97.6263 496.962 101.285 499.454 103.688L499.491 103.724L499.53 103.76C502.899 106.897 507.366 107.958 511.867 107.958C516.878 107.958 521.235 105.955 524.62 102.287C527.899 98.7351 529.664 94.4213 529.664 89.5856C529.664 82.0081 526.65 74.5155 521.463 67.2226C516.062 59.5641 508.432 53.3528 498.866 48.4666C489.022 43.4379 477.929 41 465.733 41C455.667 41 446.11 42.7961 437.113 46.4226C428.085 50.0618 420.184 55.3973 413.458 62.4004C406.699 69.3737 401.545 77.7394 397.956 87.4005L397.95 87.4182L397.943 87.436C394.402 97.1568 392.689 108.004 392.689 119.894C392.689 127.231 393.362 134.225 394.731 140.864L394.737 140.893L394.743 140.922C396.18 147.559 398.309 153.852 401.138 159.787L401.144 159.799L401.15 159.811C403.978 165.675 407.412 171.024 411.457 175.836L411.473 175.856L411.49 175.875C416.012 181.163 421.025 185.526 426.543 188.894L426.582 188.918L426.621 188.941C432.175 192.216 438.284 194.606 444.909 196.14C451.501 197.667 458.71 198.405 466.5 198.405C476.915 198.405 486.313 196.737 494.557 193.225C502.543 189.822 509.304 185.325 514.685 179.654Z" fill="#FA6262" stroke="#FA6262" stroke-width="12"/>
<path d="M274.012 189.973L274.061 190.024L274.11 190.075C278.451 194.52 284.87 196.007 291.734 196.007H334.703C342.297 196.007 349.049 195.647 354.926 194.904L354.96 194.9L354.994 194.895C360.967 194.071 366.408 192.678 371.258 190.651L371.308 190.63L371.357 190.608C379.276 187.13 385.628 181.714 390.297 174.452L390.304 174.44L390.312 174.429C394.983 167.088 397.292 158.863 397.292 149.915C397.292 140.264 394.644 131.758 389.031 124.805C385.735 120.723 381.558 117.348 376.617 114.613C379.645 112.189 382.24 109.442 384.353 106.35C388.637 100.08 390.674 92.7745 390.674 84.6936C390.674 79.9375 389.892 75.3688 388.296 71.0295C386.712 66.6621 384.408 62.6933 381.399 59.1524C378.43 55.5953 374.987 52.6319 371.077 50.2981C366.475 47.51 361.34 45.6722 355.748 44.7281C350.404 43.8258 344.235 43.3975 337.293 43.3975H291.734C284.938 43.3975 278.624 44.9108 274.255 49.2791C269.911 53.6239 268.47 60.021 268.47 66.8537V172.55C268.47 179.3 269.897 185.556 274.012 189.973Z" fill="#FA6262" stroke="#FA6262" stroke-width="12"/>
<path d="M229.43 176.219L229.459 176.295L229.49 176.37C230.393 178.565 231.456 181.107 232.675 183.996L232.707 184.071L232.741 184.145C234.093 187.12 235.5 189.716 237.004 191.661L237.046 191.715L237.088 191.768C238.73 193.796 240.757 195.387 243.099 196.526C245.712 197.864 248.595 198.405 251.535 198.405C256.945 198.405 261.737 196.443 265.561 192.619C269.203 188.977 271.442 184.514 271.442 179.361C271.442 174.911 269.543 168.907 266.677 162.023L229.977 71.3755C228.263 66.8705 226.81 63.2165 225.623 60.4428C224.378 57.3108 222.801 54.376 220.891 51.6505C218.738 48.4809 215.892 45.9616 212.48 44.0795C208.716 41.8986 204.327 41 199.646 41C194.978 41 190.606 41.9178 186.811 44.0805C183.411 45.9918 180.579 48.5629 178.389 51.7645L178.358 51.8095L178.328 51.8549C176.439 54.726 174.729 58.1892 173.159 62.1486L173.149 62.1742L173.139 62.1999C171.736 65.8359 170.525 68.9588 169.506 71.5696C169.505 71.5726 169.504 71.5756 169.502 71.5786L133.551 162.847C132.065 166.53 130.942 169.543 130.232 171.816C129.433 174.374 129 176.961 129 179.552C129 184.758 131.232 189.238 134.984 192.815C138.774 196.429 143.397 198.405 148.62 198.405C153.951 198.405 159.119 196.832 162.501 192.4L162.524 192.37L162.546 192.34C164.963 189.09 167.449 183.591 170.068 176.565L170.068 176.563L175.328 162.437H224.187L229.43 176.219Z" fill="#FA6262" stroke="#FA6262" stroke-width="12"/>
<path d="M524.048 145.599C524.048 150.075 522.929 154.935 520.691 160.178C518.517 165.357 515.064 170.473 510.332 175.524C505.601 180.512 499.558 184.572 492.205 187.705C484.851 190.838 476.283 192.405 466.5 192.405C459.083 192.405 452.337 191.701 446.262 190.295C440.188 188.888 434.657 186.714 429.669 183.773C424.746 180.767 420.206 176.835 416.049 171.975C412.341 167.563 409.176 162.64 406.554 157.205C403.932 151.706 401.95 145.855 400.607 139.652C399.329 133.45 398.689 126.864 398.689 119.894C398.689 108.576 400.32 98.4416 403.581 89.4897C406.906 80.5377 411.637 72.8966 417.776 66.5663C423.914 60.1721 431.108 55.3125 439.356 51.9875C447.605 48.6625 456.397 47 465.733 47C477.114 47 487.249 49.27 496.137 53.8099C505.025 58.3498 511.835 63.9767 516.567 70.6906C521.298 77.3406 523.664 83.6389 523.664 89.5856C523.664 92.8466 522.513 95.724 520.211 98.2178C517.91 100.712 515.128 101.958 511.867 101.958C508.222 101.958 505.473 101.095 503.618 99.3688C501.828 97.6423 499.814 94.669 497.576 90.4488C493.867 83.4791 489.487 78.2678 484.436 74.8149C479.448 71.362 473.278 69.6356 465.924 69.6356C454.223 69.6356 444.887 74.0796 437.918 82.9676C431.012 91.8555 427.559 104.484 427.559 120.853C427.559 131.788 429.094 140.899 432.163 148.189C435.232 155.414 439.58 160.817 445.207 164.398C450.834 167.979 457.42 169.769 464.965 169.769C473.15 169.769 480.056 167.755 485.683 163.727C491.373 159.634 495.658 153.656 498.535 145.791C499.75 142.082 501.253 139.077 503.043 136.775C504.833 134.409 507.711 133.226 511.675 133.226C515.064 133.226 517.973 134.409 520.403 136.775C522.833 139.141 524.048 142.082 524.048 145.599Z" fill="white"/>
<path d="M334.703 190.007H291.734C285.532 190.007 281.088 188.632 278.402 185.882C275.78 183.069 274.47 178.625 274.47 172.55V66.8537C274.47 60.6513 275.812 56.2073 278.498 53.5217C281.248 50.7722 285.66 49.3975 291.734 49.3975H337.293C344.007 49.3975 349.826 49.8131 354.749 50.6443C359.673 51.4756 364.085 53.0741 367.985 55.44C371.31 57.4222 374.252 59.9479 376.809 63.0172C379.367 66.0225 381.317 69.3794 382.66 73.0881C384.003 76.7328 384.674 80.6013 384.674 84.6936C384.674 98.7609 377.641 109.056 363.573 115.578C382.053 121.46 391.292 132.906 391.292 149.915C391.292 157.78 389.278 164.877 385.25 171.208C381.221 177.474 375.786 182.11 368.944 185.115C364.66 186.905 359.737 188.184 354.174 188.952C348.611 189.655 342.121 190.007 334.703 190.007ZM332.593 127.567H302.956V168.618H333.552C352.799 168.618 362.422 161.68 362.422 147.805C362.422 140.707 359.929 135.56 354.941 132.363C349.954 129.165 342.504 127.567 332.593 127.567ZM302.956 70.7862V107.137H329.044C336.142 107.137 341.609 106.466 345.446 105.123C349.346 103.78 352.319 101.223 354.366 97.4501C355.964 94.7645 356.763 91.7592 356.763 88.4342C356.763 81.3366 354.238 76.6369 349.186 74.335C344.135 71.9691 336.43 70.7862 326.071 70.7862H302.956Z" fill="white"/>
<path d="M235.038 174.085L228.324 156.437H171.159L164.445 174.469C161.824 181.503 159.586 186.266 157.731 188.76C155.877 191.19 152.84 192.405 148.62 192.405C145.039 192.405 141.874 191.094 139.124 188.472C136.375 185.851 135 182.877 135 179.552C135 177.634 135.32 175.652 135.959 173.606C136.599 171.56 137.654 168.714 139.124 165.069L175.092 73.7599C176.115 71.1382 177.33 68.0051 178.737 64.3603C180.207 60.6517 181.742 57.5825 183.34 55.1526C185.003 52.7228 187.145 50.7726 189.767 49.3019C192.452 47.7673 195.745 47 199.646 47C203.61 47 206.903 47.7673 209.525 49.3019C212.21 50.7726 214.352 52.6909 215.951 55.0567C217.613 57.4226 218.988 59.9803 220.075 62.7298C221.226 65.4154 222.665 69.0281 224.391 73.568L261.126 164.302C264.004 171.208 265.442 176.227 265.442 179.361C265.442 182.622 264.068 185.627 261.318 188.376C258.632 191.062 255.371 192.405 251.535 192.405C249.297 192.405 247.379 191.989 245.78 191.158C244.182 190.391 242.839 189.336 241.752 187.993C240.665 186.586 239.482 184.476 238.203 181.663C236.988 178.785 235.933 176.259 235.038 174.085ZM178.641 135.049H220.651L199.454 77.0209L178.641 135.049Z" fill="white"/>
</svg>
