<svg width="825" height="413" viewBox="0 0 825 413" fill="none" xmlns="http://www.w3.org/2000/svg">
<path d="M198.866 181.297C201.268 174.03 202.097 166.336 201.297 158.724C200.497 151.113 198.087 143.759 194.227 137.15C188.486 127.169 179.726 119.266 169.207 114.58C158.689 109.895 146.955 108.668 135.694 111.076C129.299 103.961 121.144 98.6542 112.049 95.6878C102.953 92.7213 93.2374 92.1998 83.8768 94.1758C74.5162 96.1518 65.8401 100.556 58.7197 106.945C51.5993 113.335 46.2852 121.485 43.311 130.578C35.8121 132.124 28.7283 135.249 22.5305 139.745C16.3326 144.24 11.1628 150.004 7.36461 156.652C1.5704 166.623 -0.905032 178.177 0.295731 189.647C1.49649 201.116 6.31132 211.907 14.045 220.462C11.6216 227.724 10.7771 235.42 11.5679 243.035C12.3587 250.65 14.7666 258.008 18.6305 264.617C24.3736 274.608 33.1411 282.516 43.6689 287.202C54.1966 291.888 65.9406 293.11 77.2074 290.691C82.2948 296.41 88.5409 300.981 95.5308 304.1C102.521 307.219 110.094 308.815 117.748 308.781C129.289 308.786 140.533 305.127 149.859 298.331C159.186 291.534 166.114 281.952 169.645 270.965C177.142 269.417 184.224 266.292 190.42 261.796C196.617 257.301 201.785 251.538 205.582 244.891C211.308 234.935 213.741 223.426 212.535 212.005C211.329 200.584 206.545 189.836 198.866 181.297ZM117.748 294.665C108.299 294.678 99.1457 291.368 91.8899 285.315L93.1576 284.586L136.126 259.789C137.191 259.158 138.074 258.263 138.692 257.19C139.309 256.117 139.639 254.904 139.651 253.666V193.093L157.813 203.595C157.903 203.64 157.981 203.705 158.04 203.787C158.1 203.868 158.139 203.963 158.154 204.062V254.259C158.13 264.968 153.866 275.232 146.293 282.805C138.721 290.377 128.457 294.642 117.748 294.665ZM30.8943 257.568C26.1515 249.383 24.4481 239.787 26.0841 230.469L27.3608 231.233L70.3652 256.04C71.4283 256.664 72.6388 256.993 73.8717 256.993C75.1046 256.993 76.3152 256.664 77.3783 256.04L129.913 225.749V246.716C129.909 246.825 129.881 246.932 129.829 247.029C129.778 247.126 129.705 247.209 129.617 247.273L86.0996 272.368C76.8136 277.713 65.7862 279.158 55.4368 276.383C45.0873 273.609 36.2611 266.842 30.8943 257.568ZM19.5655 163.989C24.3485 155.757 31.8812 149.476 40.8385 146.249V197.292C40.825 198.525 41.1413 199.74 41.7546 200.81C42.3679 201.88 43.256 202.767 44.327 203.379L96.6102 233.535L78.4482 244.037C78.349 244.086 78.2397 244.111 78.129 244.111C78.0183 244.111 77.9091 244.086 77.8098 244.037L34.3828 218.987C25.1107 213.617 18.3449 204.79 15.5677 194.441C12.7904 184.092 14.228 173.064 19.5655 163.773V163.989ZM168.791 198.65L116.346 168.197L134.463 157.731C134.562 157.682 134.671 157.656 134.782 157.656C134.893 157.656 135.002 157.682 135.101 157.731L178.528 182.825C185.172 186.655 190.589 192.296 194.146 199.089C197.703 205.883 199.253 213.549 198.616 221.191C197.979 228.832 195.18 236.135 190.546 242.246C185.913 248.356 179.636 253.022 172.45 255.698V204.647C172.412 203.416 172.055 202.215 171.414 201.164C170.772 200.113 169.868 199.246 168.791 198.65ZM186.863 171.469L185.595 170.705L142.672 145.692C141.6 145.068 140.382 144.739 139.143 144.739C137.903 144.739 136.685 145.068 135.614 145.692L83.1236 175.983V155.007C83.1162 154.902 83.1354 154.796 83.1794 154.7C83.2234 154.605 83.2908 154.521 83.3753 154.458L126.802 129.4C133.459 125.569 141.068 123.712 148.741 124.046C156.414 124.379 163.834 126.89 170.133 131.284C176.432 135.678 181.35 141.774 184.312 148.86C187.275 155.946 188.16 163.729 186.863 171.299V171.469ZM73.2154 208.648L55.0534 198.182C54.962 198.127 54.884 198.053 54.8249 197.964C54.7658 197.876 54.7272 197.775 54.7117 197.67V147.616C54.7268 139.939 56.926 132.424 61.0524 125.949C65.1789 119.475 71.0623 114.309 78.0154 111.053C84.9686 107.798 92.7045 106.588 100.32 107.564C107.935 108.541 115.115 111.665 121.021 116.57L119.744 117.289L76.7849 142.087C75.7186 142.717 74.833 143.611 74.214 144.684C73.5949 145.757 73.2633 146.971 73.2513 148.21L73.2154 208.648ZM83.0786 187.384L106.473 173.897L129.913 187.384V214.348L106.563 227.835L83.1236 214.348L83.0786 187.384Z" fill="white"/>
<path fill-rule="evenodd" clip-rule="evenodd" d="M727.36 98.5525L571.603 46.2514L483.057 309.949L638.813 362.25L727.36 98.5525ZM574.368 38.0193C569.821 36.4927 564.898 38.9407 563.371 43.4872L474.825 307.185C473.298 311.731 475.746 316.654 480.293 318.181L636.049 370.482C640.596 372.009 645.519 369.561 647.046 365.014L735.592 101.317C737.119 96.7703 734.671 91.8471 730.124 90.3205L574.368 38.0193Z" fill="white"/>
<path fill-rule="evenodd" clip-rule="evenodd" d="M506.799 64.642C504.428 64.2804 502.213 65.9091 501.852 68.2796L463.903 317.124C463.57 319.31 464.932 321.397 467.067 321.972L517.141 335.442C519.457 336.065 520.829 338.447 520.206 340.763C519.583 343.078 517.201 344.45 514.885 343.828L464.812 330.357C458.406 328.634 454.318 322.373 455.318 315.815L493.267 66.9705C494.352 59.8589 500.996 54.9729 508.108 56.0575L545.747 61.7975C548.118 62.159 549.746 64.3737 549.385 66.7443C549.023 69.1148 546.808 70.7435 544.438 70.382L506.799 64.642Z" fill="white"/>
<path fill-rule="evenodd" clip-rule="evenodd" d="M439.241 113.282C436.846 113.401 435.001 115.439 435.12 117.834L445.613 329.111C445.716 331.198 447.292 332.916 449.363 333.198L475.38 336.74C477.756 337.064 479.42 339.252 479.096 341.628C478.772 344.004 476.584 345.668 474.208 345.345L448.192 341.802C441.979 340.956 437.25 335.804 436.939 329.542L426.447 118.264C426.09 111.079 431.625 104.966 438.81 104.609L469.743 103.073C472.138 102.954 474.176 104.799 474.295 107.194C474.414 109.589 472.569 111.627 470.174 111.746L439.241 113.282Z" fill="white"/>
<ellipse cx="577.918" cy="163.83" rx="9.04557" ry="11.5783" transform="rotate(15.0564 577.918 163.83)" fill="white"/>
<ellipse cx="645.191" cy="181.178" rx="9.04557" ry="11.5783" transform="rotate(15.0564 645.191 181.178)" fill="white"/>
<path d="M559.398 213.177C562.921 222.368 574.228 241.896 591.279 246.483C608.33 251.07 628.841 240.101 636.965 234.043" stroke="white" stroke-width="14" stroke-linecap="round"/>
<path d="M380.582 206.98C378.03 203.377 391.054 194.768 392.286 191.726C381.325 193.757 369.861 194.041 358.738 194.927C353.036 195.382 347.335 195.732 341.652 196.353C336.967 196.865 328.702 196.068 324.677 198.528C325.653 199.804 328.949 200.732 330.437 201.48C333.04 202.79 335.645 204.103 338.216 205.475C342.412 207.714 349.145 210.468 349.568 216.035C350.3 225.679 333.822 223.105 328.256 222.723C308.133 221.342 287.879 220.927 267.723 220.351C262.582 220.205 257.31 219.848 252.22 219.082C250.594 218.837 239.852 215.897 245.001 212.654C246.902 211.456 253.374 214.077 255.889 214.376C260.917 214.974 266.022 215.028 271.081 215.055C282.09 215.112 293.1 215.313 304.109 215.323C314.398 215.332 325.867 216.666 335.967 214.824C330.323 208.268 314.589 208.737 311.944 199.211C309.069 188.856 327.871 188.011 334.156 187.084C344.529 185.554 355.097 184.848 365.549 184.065C370.345 183.705 375.123 183.733 379.919 183.569C382.867 183.468 390.163 184.777 392.202 183.186C387.963 180.632 383.909 177.737 379.984 174.731C377.923 173.153 370.631 167.817 372.327 164.709C374.638 160.474 392.734 175.859 396.043 177.918C399.015 179.768 406.371 182.126 406.501 186.468C406.583 189.214 400.84 193.055 398.841 194.435C397.557 195.321 381.652 208.49 380.582 206.98Z" fill="white"/>
<path d="M378.503 57.1073C378.351 52.6279 384.318 50.9646 386.505 54.8768L392.522 65.6417C393.303 67.0385 394.799 67.8821 396.398 67.8278L408.724 67.4094C413.203 67.2574 414.866 73.2248 410.954 75.4117L400.189 81.4291C398.792 82.2099 397.949 83.7056 398.003 85.3048L398.421 97.6302C398.573 102.11 392.606 103.773 390.419 99.8607L384.402 89.0958C383.621 87.6991 382.125 86.8554 380.526 86.9097L368.201 87.3281C363.721 87.4801 362.058 81.5127 365.97 79.3258L376.735 73.3084C378.132 72.5276 378.975 71.032 378.921 69.4327L378.503 57.1073Z" fill="white"/>
<path d="M424.147 43.888C424.086 42.079 426.496 41.4073 427.379 42.9873L429.809 47.3346C430.124 47.8987 430.728 48.2394 431.374 48.2175L436.352 48.0485C438.161 47.9871 438.833 50.397 437.253 51.2802L432.905 53.7103C432.341 54.0256 432 54.6296 432.022 55.2755L432.191 60.2531C432.253 62.0621 429.843 62.7338 428.96 61.1538L426.53 56.8065C426.214 56.2424 425.61 55.9017 424.964 55.9236L419.987 56.0926C418.178 56.154 417.506 53.7441 419.086 52.8609L423.433 50.4308C423.997 50.1155 424.338 49.5115 424.316 48.8656L424.147 43.888Z" fill="white"/>
<path fill-rule="evenodd" clip-rule="evenodd" d="M425.994 44.2649L426.132 48.3274C426.187 49.9513 425.33 51.47 423.912 52.2628L420.364 54.2462L424.426 54.1083C426.05 54.0532 427.569 54.9098 428.362 56.328L430.345 59.8762L430.207 55.8137C430.152 54.1898 431.009 52.6711 432.427 51.8783L435.975 49.8949L431.912 50.0328C430.289 50.0879 428.77 49.2313 427.977 47.813L425.994 44.2649ZM427.266 41.6897C426.257 39.884 423.503 40.6517 423.573 42.7191L423.766 48.4077C423.791 49.1459 423.402 49.8362 422.757 50.1965L417.788 52.9738C415.983 53.9831 416.75 56.7373 418.818 56.6672L424.507 56.4741C425.245 56.449 425.935 56.8384 426.295 57.483L429.073 62.4514C430.082 64.2571 432.836 63.4894 432.766 61.422L432.573 55.7334C432.548 54.9952 432.937 54.3049 433.582 53.9446L438.55 51.1673C440.356 50.158 439.588 47.4038 437.521 47.4739L431.832 47.667C431.094 47.6921 430.404 47.3027 430.043 46.658L427.266 41.6897Z" fill="white"/>
<path d="M400.772 128.828C398.688 129.409 396.528 128.191 395.948 126.107C395.367 124.023 396.585 121.863 398.669 121.282C400.753 120.702 402.912 121.92 403.493 124.004C404.074 126.087 402.856 128.247 400.772 128.828Z" fill="white"/>
<path d="M377.701 118.995C375.618 119.575 373.458 118.357 372.877 116.273C372.296 114.19 373.515 112.03 375.598 111.449C377.682 110.868 379.842 112.086 380.423 114.17C381.003 116.254 379.785 118.414 377.701 118.995Z" fill="white"/>
<path d="M402.377 47.0615C400.294 47.6422 398.134 46.4239 397.553 44.3402C396.972 42.2565 398.191 40.0965 400.274 39.5158C402.358 38.935 404.518 40.1533 405.099 42.237C405.679 44.3207 404.461 46.4807 402.377 47.0615Z" fill="white"/>
<path d="M447.901 79.0986C445.817 79.6794 443.657 78.4611 443.076 76.3774C442.495 74.2937 443.714 72.1337 445.797 71.5529C447.881 70.9722 450.041 72.1905 450.622 74.2742C451.203 76.3579 449.984 78.5179 447.901 79.0986Z" fill="white"/>
<path d="M761.701 35.4108C764.583 31.978 770.133 34.7307 769.143 39.1021L766.421 51.1305C766.068 52.6912 766.616 54.3185 767.842 55.3474L777.288 63.2765C780.72 66.1582 777.968 71.7079 773.596 70.7186L761.568 67.9966C760.007 67.6434 758.38 68.1917 757.351 69.4173L749.422 78.8629C746.54 82.2957 740.99 79.543 741.98 75.1715L744.702 63.1432C745.055 61.5824 744.507 59.9552 743.281 58.9263L733.835 50.9972C730.403 48.1155 733.155 42.5658 737.527 43.555L749.555 46.277C751.116 46.6302 752.743 46.082 753.772 44.8564L761.701 35.4108Z" fill="white"/>
<path d="M774.371 88.3845C776.145 86.272 779.56 87.966 778.951 90.6561L777.276 98.0582C777.059 99.0186 777.396 100.02 778.15 100.653L783.963 105.533C786.075 107.306 784.381 110.721 781.691 110.112L774.289 108.437C773.329 108.22 772.327 108.557 771.694 109.312L766.815 115.124C765.041 117.237 761.626 115.543 762.235 112.853L763.91 105.451C764.127 104.49 763.79 103.489 763.036 102.856L757.223 97.9761C755.111 96.2028 756.805 92.7876 759.495 93.3964L766.897 95.0714C767.857 95.2888 768.859 94.9514 769.492 94.1972L774.371 88.3845Z" fill="white"/>
<path d="M804.483 56.0963C805.647 54.71 807.888 55.8217 807.489 57.5871L806.389 62.4447C806.247 63.075 806.468 63.7321 806.963 64.1476L810.778 67.3498C812.164 68.5135 811.052 70.7548 809.287 70.3553L804.429 69.256C803.799 69.1134 803.142 69.3348 802.726 69.8297L799.524 73.6443C798.36 75.0306 796.119 73.9189 796.519 72.1536L797.618 67.296C797.761 66.6657 797.539 66.0085 797.044 65.593L793.23 62.3908C791.843 61.2271 792.955 58.9858 794.72 59.3853L799.578 60.4846C800.208 60.6273 800.865 60.4059 801.281 59.9109L804.483 56.0963Z" fill="white"/>
<path fill-rule="evenodd" clip-rule="evenodd" d="M805.604 57.611L802.991 60.7244C801.946 61.9688 800.294 62.5255 798.709 62.1669L794.744 61.2697L797.858 63.8832C799.102 64.9279 799.659 66.5802 799.3 68.1649L798.403 72.1296L801.016 69.0163C802.061 67.7718 803.713 67.2151 805.298 67.5737L809.263 68.471L806.149 65.8574C804.905 64.8128 804.348 63.1604 804.707 61.5757L805.604 57.611ZM808.272 56.5466C808.729 54.529 806.167 53.2585 804.837 54.8429L801.178 59.2024C800.703 59.7681 799.952 60.0211 799.231 59.8581L793.68 58.6018C791.662 58.1452 790.392 60.7066 791.976 62.0366L796.336 65.6962C796.901 66.1711 797.154 66.9221 796.991 67.6425L795.735 73.194C795.278 75.2116 797.84 76.4821 799.17 74.8977L802.829 70.5382C803.304 69.9725 804.055 69.7195 804.776 69.8825L810.327 71.1388C812.345 71.5954 813.615 69.034 812.031 67.704L807.671 64.0444C807.106 63.5695 806.853 62.8185 807.016 62.0981L808.272 56.5466Z" fill="white"/>
<path d="M786.172 43.9019C784.234 42.9407 783.442 40.5906 784.404 38.6527C785.365 36.7149 787.715 35.9232 789.653 36.8843C791.591 37.8455 792.382 40.1956 791.421 42.1335C790.46 44.0713 788.11 44.863 786.172 43.9019Z" fill="white"/>
<path d="M798.607 98.1615C796.669 97.2003 795.877 94.8502 796.839 92.9124C797.8 90.9745 800.15 90.1828 802.088 91.144C804.026 92.1051 804.817 94.4553 803.856 96.3931C802.895 98.3309 800.545 99.1227 798.607 98.1615Z" fill="white"/>
</svg>
