<svg width="875" height="436" viewBox="0 0 875 436" fill="none" xmlns="http://www.w3.org/2000/svg">
<path d="M198.866 204.297C201.268 197.03 202.097 189.336 201.297 181.724C200.497 174.113 198.087 166.759 194.227 160.15C188.486 150.169 179.726 142.266 169.207 137.58C158.689 132.895 146.955 131.668 135.694 134.076C129.299 126.961 121.144 121.654 112.049 118.688C102.953 115.721 93.2374 115.2 83.8768 117.176C74.5162 119.152 65.8401 123.556 58.7197 129.945C51.5993 136.335 46.2852 144.485 43.311 153.578C35.8121 155.124 28.7283 158.249 22.5305 162.745C16.3326 167.24 11.1628 173.004 7.36461 179.652C1.5704 189.623 -0.905032 201.177 0.295731 212.647C1.49649 224.116 6.31132 234.907 14.045 243.462C11.6216 250.724 10.7771 258.42 11.5679 266.035C12.3587 273.65 14.7666 281.008 18.6305 287.617C24.3736 297.608 33.1411 305.516 43.6689 310.202C54.1966 314.888 65.9406 316.11 77.2074 313.691C82.2948 319.41 88.5409 323.981 95.5308 327.1C102.521 330.219 110.094 331.815 117.748 331.781C129.289 331.786 140.533 328.127 149.859 321.331C159.186 314.534 166.114 304.952 169.645 293.965C177.142 292.417 184.224 289.292 190.42 284.796C196.617 280.301 201.785 274.538 205.582 267.891C211.308 257.935 213.741 246.426 212.535 235.005C211.329 223.584 206.545 212.836 198.866 204.297ZM117.748 317.665C108.299 317.678 99.1457 314.368 91.8899 308.315L93.1576 307.586L136.126 282.789C137.191 282.158 138.074 281.263 138.692 280.19C139.309 279.117 139.639 277.904 139.651 276.666V216.093L157.813 226.595C157.903 226.64 157.981 226.705 158.04 226.787C158.1 226.868 158.139 226.963 158.154 227.062V277.259C158.13 287.968 153.866 298.232 146.293 305.805C138.721 313.377 128.457 317.642 117.748 317.665ZM30.8943 280.568C26.1515 272.383 24.4481 262.787 26.0841 253.469L27.3608 254.233L70.3652 279.04C71.4283 279.664 72.6388 279.993 73.8717 279.993C75.1046 279.993 76.3152 279.664 77.3783 279.04L129.913 248.749V269.716C129.909 269.825 129.881 269.932 129.829 270.029C129.778 270.126 129.705 270.209 129.617 270.273L86.0996 295.368C76.8136 300.713 65.7862 302.158 55.4368 299.383C45.0873 296.609 36.2611 289.842 30.8943 280.568ZM19.5655 186.989C24.3485 178.757 31.8812 172.476 40.8385 169.249V220.292C40.825 221.525 41.1413 222.74 41.7546 223.81C42.3679 224.88 43.256 225.767 44.327 226.379L96.6102 256.535L78.4482 267.037C78.349 267.086 78.2397 267.111 78.129 267.111C78.0183 267.111 77.9091 267.086 77.8098 267.037L34.3828 241.987C25.1107 236.617 18.3449 227.79 15.5677 217.441C12.7904 207.092 14.228 196.064 19.5655 186.773V186.989ZM168.791 221.65L116.346 191.197L134.463 180.731C134.562 180.682 134.671 180.656 134.782 180.656C134.893 180.656 135.002 180.682 135.101 180.731L178.528 205.825C185.172 209.655 190.589 215.296 194.146 222.089C197.703 228.883 199.253 236.549 198.616 244.191C197.979 251.832 195.18 259.135 190.546 265.246C185.913 271.356 179.636 276.022 172.45 278.698V227.647C172.412 226.416 172.055 225.215 171.414 224.164C170.772 223.113 169.868 222.246 168.791 221.65ZM186.863 194.469L185.595 193.705L142.672 168.692C141.6 168.068 140.382 167.739 139.143 167.739C137.903 167.739 136.685 168.068 135.614 168.692L83.1236 198.983V178.007C83.1162 177.902 83.1354 177.796 83.1794 177.7C83.2234 177.605 83.2908 177.521 83.3753 177.458L126.802 152.4C133.459 148.569 141.068 146.712 148.741 147.046C156.414 147.379 163.834 149.89 170.133 154.284C176.432 158.678 181.35 164.774 184.312 171.86C187.275 178.946 188.16 186.729 186.863 194.299V194.469ZM73.2154 231.648L55.0534 221.182C54.962 221.127 54.884 221.053 54.8249 220.964C54.7658 220.876 54.7272 220.775 54.7117 220.67V170.616C54.7268 162.939 56.926 155.424 61.0524 148.949C65.1789 142.475 71.0623 137.309 78.0154 134.053C84.9686 130.798 92.7045 129.588 100.32 130.564C107.935 131.541 115.115 134.665 121.021 139.57L119.744 140.289L76.7848 165.087C75.7186 165.717 74.833 166.611 74.214 167.684C73.5949 168.757 73.2633 169.971 73.2513 171.21L73.2154 231.648ZM83.0786 210.384L106.473 196.897L129.913 210.384V237.348L106.563 250.835L83.1236 237.348L83.0786 210.384Z" fill="white"/>
<path fill-rule="evenodd" clip-rule="evenodd" d="M727.36 121.553L571.603 69.2514L483.057 332.949L638.813 385.25L727.36 121.553ZM574.368 61.0193C569.821 59.4927 564.898 61.9407 563.371 66.4872L474.825 330.185C473.298 334.731 475.746 339.654 480.293 341.181L636.049 393.482C640.596 395.009 645.519 392.561 647.046 388.014L735.592 124.317C737.119 119.77 734.671 114.847 730.124 113.32L574.368 61.0193Z" fill="white"/>
<path fill-rule="evenodd" clip-rule="evenodd" d="M506.799 87.642C504.428 87.2804 502.213 88.9091 501.852 91.2796L463.903 340.124C463.57 342.31 464.932 344.397 467.067 344.972L517.141 358.442C519.457 359.065 520.829 361.447 520.206 363.763C519.583 366.078 517.201 367.45 514.885 366.828L464.812 353.357C458.406 351.634 454.318 345.373 455.318 338.815L493.267 89.9705C494.352 82.8589 500.996 77.9729 508.108 79.0575L545.747 84.7975C548.118 85.159 549.746 87.3737 549.385 89.7443C549.023 92.1148 546.808 93.7435 544.438 93.382L506.799 87.642Z" fill="white"/>
<path fill-rule="evenodd" clip-rule="evenodd" d="M439.241 136.282C436.846 136.401 435.001 138.439 435.12 140.834L445.613 352.111C445.716 354.199 447.292 355.916 449.363 356.198L475.38 359.74C477.756 360.064 479.42 362.252 479.096 364.628C478.772 367.004 476.584 368.668 474.208 368.345L448.192 364.802C441.979 363.956 437.25 358.804 436.939 352.542L426.447 141.264C426.09 134.079 431.625 127.966 438.81 127.609L469.743 126.073C472.138 125.954 474.176 127.799 474.295 130.194C474.414 132.589 472.569 134.627 470.174 134.746L439.241 136.282Z" fill="white"/>
<ellipse cx="577.918" cy="186.83" rx="9.04557" ry="11.5783" transform="rotate(15.0564 577.918 186.83)" fill="white"/>
<ellipse cx="645.191" cy="204.178" rx="9.04557" ry="11.5783" transform="rotate(15.0564 645.191 204.178)" fill="white"/>
<path d="M559.398 236.177C562.921 245.368 574.228 264.896 591.279 269.483C608.33 274.07 628.841 263.101 636.965 257.043" stroke="white" stroke-width="14" stroke-linecap="round"/>
<path d="M380.582 229.98C378.031 226.377 391.054 217.768 392.286 214.726C381.325 216.757 369.861 217.041 358.738 217.927C353.036 218.382 347.335 218.732 341.652 219.353C336.967 219.865 328.702 219.068 324.677 221.528C325.653 222.804 328.949 223.732 330.437 224.48C333.04 225.79 335.645 227.103 338.216 228.475C342.412 230.714 349.145 233.468 349.568 239.035C350.3 248.679 333.822 246.105 328.256 245.723C308.133 244.342 287.879 243.927 267.723 243.351C262.582 243.205 257.31 242.848 252.22 242.082C250.594 241.837 239.852 238.897 245.001 235.654C246.902 234.456 253.374 237.077 255.889 237.376C260.917 237.974 266.022 238.028 271.081 238.055C282.09 238.112 293.1 238.313 304.109 238.323C314.398 238.332 325.867 239.666 335.967 237.824C330.323 231.268 314.589 231.737 311.944 222.211C309.069 211.856 327.871 211.011 334.156 210.084C344.529 208.554 355.097 207.848 365.549 207.065C370.345 206.705 375.123 206.733 379.919 206.569C382.867 206.468 390.163 207.777 392.202 206.186C387.963 203.632 383.909 200.737 379.984 197.731C377.923 196.153 370.631 190.817 372.327 187.709C374.638 183.474 392.734 198.859 396.043 200.918C399.015 202.768 406.371 205.126 406.501 209.468C406.583 212.214 400.84 216.055 398.841 217.435C397.557 218.321 381.652 231.49 380.582 229.98Z" fill="white"/>
<path d="M378.503 80.1073C378.351 75.6279 384.318 73.9646 386.505 77.8768L392.522 88.6417C393.303 90.0385 394.799 90.8821 396.398 90.8278L408.724 90.4094C413.203 90.2574 414.866 96.2248 410.954 98.4117L400.189 104.429C398.792 105.21 397.949 106.706 398.003 108.305L398.421 120.63C398.573 125.11 392.606 126.773 390.419 122.861L384.402 112.096C383.621 110.699 382.125 109.855 380.526 109.91L368.201 110.328C363.721 110.48 362.058 104.513 365.97 102.326L376.735 96.3084C378.132 95.5276 378.975 94.032 378.921 92.4327L378.503 80.1073Z" fill="white"/>
<path d="M424.147 66.888C424.086 65.079 426.496 64.4073 427.379 65.9873L429.809 70.3346C430.124 70.8987 430.728 71.2394 431.374 71.2175L436.352 71.0485C438.161 70.9871 438.833 73.397 437.253 74.2802L432.905 76.7103C432.341 77.0256 432 77.6296 432.022 78.2755L432.191 83.2531C432.253 85.0621 429.843 85.7338 428.96 84.1538L426.53 79.8065C426.214 79.2424 425.61 78.9017 424.964 78.9236L419.987 79.0926C418.178 79.154 417.506 76.7441 419.086 75.8609L423.433 73.4308C423.997 73.1155 424.338 72.5115 424.316 71.8656L424.147 66.888Z" fill="white"/>
<path fill-rule="evenodd" clip-rule="evenodd" d="M425.994 67.2649L426.132 71.3274C426.187 72.9513 425.33 74.47 423.912 75.2628L420.364 77.2462L424.426 77.1083C426.05 77.0532 427.569 77.9098 428.362 79.328L430.345 82.8762L430.207 78.8137C430.152 77.1898 431.009 75.6711 432.427 74.8783L435.975 72.8949L431.912 73.0328C430.289 73.0879 428.77 72.2313 427.977 70.813L425.994 67.2649ZM427.266 64.6897C426.257 62.884 423.503 63.6517 423.573 65.7191L423.766 71.4077C423.791 72.1459 423.402 72.8362 422.757 73.1965L417.788 75.9738C415.983 76.9831 416.75 79.7373 418.818 79.6672L424.507 79.4741C425.245 79.449 425.935 79.8384 426.295 80.483L429.073 85.4514C430.082 87.2571 432.836 86.4894 432.766 84.422L432.573 78.7334C432.548 77.9952 432.937 77.3049 433.582 76.9446L438.55 74.1673C440.356 73.158 439.588 70.4038 437.521 70.4739L431.832 70.667C431.094 70.6921 430.404 70.3027 430.043 69.658L427.266 64.6897Z" fill="white"/>
<path d="M400.772 151.828C398.688 152.409 396.528 151.191 395.948 149.107C395.367 147.023 396.585 144.863 398.669 144.282C400.753 143.702 402.912 144.92 403.493 147.004C404.074 149.087 402.856 151.247 400.772 151.828Z" fill="white"/>
<path d="M377.701 141.995C375.618 142.575 373.458 141.357 372.877 139.273C372.296 137.19 373.515 135.03 375.598 134.449C377.682 133.868 379.842 135.086 380.423 137.17C381.003 139.254 379.785 141.414 377.701 141.995Z" fill="white"/>
<path d="M402.377 70.0615C400.294 70.6422 398.134 69.4239 397.553 67.3402C396.972 65.2565 398.191 63.0965 400.274 62.5158C402.358 61.935 404.518 63.1533 405.099 65.237C405.679 67.3207 404.461 69.4807 402.377 70.0615Z" fill="white"/>
<path d="M447.901 102.099C445.817 102.679 443.657 101.461 443.076 99.3774C442.495 97.2937 443.714 95.1337 445.797 94.5529C447.881 93.9722 450.041 95.1905 450.622 97.2742C451.203 99.3579 449.984 101.518 447.901 102.099Z" fill="white"/>
<path d="M761.701 58.4108C764.583 54.978 770.133 57.7307 769.143 62.1021L766.421 74.1305C766.068 75.6912 766.616 77.3185 767.842 78.3474L777.288 86.2765C780.72 89.1582 777.968 94.7079 773.596 93.7186L761.568 90.9966C760.007 90.6434 758.38 91.1917 757.351 92.4173L749.422 101.863C746.54 105.296 740.99 102.543 741.98 98.1715L744.702 86.1432C745.055 84.5824 744.507 82.9552 743.281 81.9263L733.835 73.9972C730.403 71.1155 733.155 65.5658 737.527 66.555L749.555 69.277C751.116 69.6302 752.743 69.082 753.772 67.8564L761.701 58.4108Z" fill="white"/>
<path d="M774.371 111.385C776.145 109.272 779.56 110.966 778.951 113.656L777.276 121.058C777.059 122.019 777.396 123.02 778.15 123.653L783.963 128.533C786.075 130.306 784.381 133.721 781.691 133.112L774.289 131.437C773.329 131.22 772.327 131.557 771.694 132.312L766.815 138.124C765.041 140.237 761.626 138.543 762.235 135.853L763.91 128.451C764.127 127.49 763.79 126.489 763.036 125.856L757.223 120.976C755.111 119.203 756.805 115.788 759.495 116.396L766.897 118.071C767.857 118.289 768.859 117.951 769.492 117.197L774.371 111.385Z" fill="white"/>
<path d="M804.483 79.0963C805.647 77.71 807.888 78.8217 807.489 80.5871L806.389 85.4447C806.247 86.075 806.468 86.7321 806.963 87.1476L810.778 90.3498C812.164 91.5135 811.052 93.7548 809.287 93.3553L804.429 92.256C803.799 92.1134 803.142 92.3348 802.726 92.8297L799.524 96.6443C798.36 98.0306 796.119 96.919 796.519 95.1536L797.618 90.296C797.761 89.6657 797.539 89.0085 797.044 88.593L793.23 85.3908C791.843 84.2271 792.955 81.9858 794.72 82.3853L799.578 83.4846C800.208 83.6273 800.865 83.4059 801.281 82.9109L804.483 79.0963Z" fill="white"/>
<path fill-rule="evenodd" clip-rule="evenodd" d="M805.604 80.611L802.991 83.7244C801.946 84.9688 800.294 85.5255 798.709 85.1669L794.744 84.2697L797.858 86.8832C799.102 87.9279 799.659 89.5802 799.3 91.1649L798.403 95.1296L801.016 92.0163C802.061 90.7718 803.713 90.2151 805.298 90.5737L809.263 91.471L806.149 88.8574C804.905 87.8128 804.348 86.1604 804.707 84.5757L805.604 80.611ZM808.272 79.5466C808.729 77.529 806.167 76.2585 804.837 77.8429L801.178 82.2024C800.703 82.7681 799.952 83.0211 799.231 82.8581L793.68 81.6018C791.662 81.1452 790.392 83.7066 791.976 85.0366L796.336 88.6962C796.901 89.1711 797.154 89.9221 796.991 90.6425L795.735 96.194C795.278 98.2116 797.84 99.4821 799.17 97.8977L802.829 93.5382C803.304 92.9725 804.055 92.7195 804.776 92.8825L810.327 94.1388C812.345 94.5954 813.615 92.034 812.031 90.704L807.671 87.0444C807.106 86.5695 806.853 85.8185 807.016 85.0981L808.272 79.5466Z" fill="white"/>
<path d="M786.172 66.9019C784.234 65.9407 783.442 63.5906 784.404 61.6527C785.365 59.7149 787.715 58.9232 789.653 59.8843C791.591 60.8455 792.382 63.1956 791.421 65.1335C790.46 67.0713 788.11 67.863 786.172 66.9019Z" fill="white"/>
<path d="M798.607 121.161C796.669 120.2 795.877 117.85 796.839 115.912C797.8 113.975 800.15 113.183 802.088 114.144C804.026 115.105 804.817 117.455 803.856 119.393C802.895 121.331 800.545 122.123 798.607 121.161Z" fill="white"/>
</svg>
