<svg width="358" height="58" viewBox="0 0 358 58" fill="none" xmlns="http://www.w3.org/2000/svg">
<g clip-path="url(#clip0_99_83)">
<path d="M265.771 3.0215V11.2515H248.083V54.55H239.238V11.252H221.181V3.0215H265.771ZM267.76 49.6415C268.383 49.6415 268.928 49.8655 269.389 50.3145C269.857 50.763 270.091 51.3005 270.097 51.9265C270.095 52.3372 269.981 52.7396 269.767 53.09C269.556 53.4353 269.261 53.7217 268.91 53.9225C268.563 54.1307 268.165 54.239 267.76 54.2355C267.112 54.2355 266.561 54.011 266.1 53.5625C265.639 53.1135 265.41 52.57 265.416 51.9265C265.41 51.3005 265.638 50.7632 266.1 50.3145C266.561 49.8655 267.112 49.6415 267.76 49.6415ZM92.458 54.55L59.845 14.014V54.529H51V3H62.0555L103.258 54.1645L103.259 11.252L103.256 3.0215H147.845V11.2515H112.104V24.4915H140.848V32.722H112.104V46.32H147.846V54.55H92.458ZM176.192 32.6435L181.989 39.85L170.112 54.611H158.504L176.192 32.6435ZM170.112 3.043L185.077 21.628L199.995 3.1L211.57 3.0825L190.872 28.825L211.603 54.5715H199.995L158.537 3.043H170.112ZM282.855 32.528H286.775V47.628C286.769 49.0155 286.469 50.202 285.882 51.2005C285.289 52.198 284.467 52.96 283.413 53.4975C282.364 54.0285 281.135 54.3005 279.739 54.3005C278.462 54.3005 277.318 54.0705 276.299 53.6215C275.28 53.1725 274.472 52.4995 273.878 51.6135C273.278 50.728 272.985 49.6235 272.985 48.301H276.911C276.917 48.8795 277.049 49.381 277.3 49.801C277.547 50.2157 277.91 50.5498 278.343 50.763C278.792 50.988 279.308 51.1003 279.889 51.1C280.519 51.1 281.057 50.97 281.495 50.704C281.932 50.444 282.268 50.0543 282.502 49.535C282.729 49.021 282.849 48.3835 282.855 47.6275V32.528ZM302.9 38.433C302.805 37.518 302.385 36.803 301.654 36.2955C300.917 35.7815 299.965 35.528 298.796 35.528C297.976 35.528 297.268 35.652 296.68 35.894C296.093 36.142 295.638 36.4725 295.326 36.892C295.015 37.311 294.859 37.7895 294.846 38.327C294.846 38.7755 294.955 39.1655 295.164 39.49C295.381 39.8304 295.675 40.1156 296.021 40.323C296.397 40.5595 296.8 40.7516 297.22 40.8955C297.663 41.0488 298.107 41.1788 298.55 41.2855L300.594 41.7875C301.415 41.9765 302.212 42.23 302.973 42.555C303.734 42.874 304.423 43.2815 305.028 43.7715C305.634 44.2615 306.113 44.852 306.467 45.543C306.82 46.234 307 47.043 307 47.976C307 49.2335 306.676 50.338 306.023 51.2945C305.37 52.2455 304.429 52.9895 303.195 53.527C301.966 54.0585 300.479 54.33 298.73 54.33C297.04 54.33 295.566 54.07 294.325 53.5505C293.079 53.037 292.108 52.2805 291.406 51.2885C290.705 50.2965 290.328 49.086 290.274 47.663H294.158C294.212 48.407 294.451 49.027 294.859 49.529C295.272 50.025 295.811 50.391 296.471 50.639C297.136 50.8815 297.879 51.0055 298.7 51.0055C299.557 51.0055 300.312 50.8755 300.965 50.6215C301.612 50.3675 302.122 50.0135 302.488 49.5525C302.859 49.0975 303.045 48.5605 303.051 47.9465C303.045 47.3855 302.876 46.919 302.553 46.5525C302.223 46.1865 301.768 45.8795 301.186 45.6315C300.6 45.3835 299.916 45.159 299.137 44.9645L296.656 44.3385C294.864 43.8835 293.445 43.193 292.408 42.2655C291.365 41.3385 290.85 40.1105 290.85 38.569C290.85 37.3055 291.197 36.195 291.898 35.244C292.593 34.294 293.547 33.5555 294.751 33.03C295.961 32.4985 297.328 32.2385 298.85 32.2385C300.396 32.2385 301.75 32.4985 302.919 33.03C304.087 33.5555 305.005 34.2875 305.669 35.2205C306.335 36.154 306.683 37.2225 306.701 38.433H302.9Z" fill="white"/>
</g>
<defs>
<clipPath id="clip0_99_83">
<rect width="256" height="52" fill="white" transform="translate(51 3)"/>
</clipPath>
</defs>
</svg>
