<svg width="358" height="58" viewBox="0 0 358 58" fill="none" xmlns="http://www.w3.org/2000/svg">
<g clip-path="url(#clip0_99_83)">
<path d="M225.892 23.0318C222.654 23.0318 220.342 24.1353 219.208 26.2246L218.597 27.356V23.5765H213.328V46.5522H218.871V32.8829C218.871 29.6172 220.651 27.7439 223.751 27.7439C226.707 27.7439 228.402 29.5679 228.402 32.747V46.5518H233.948V31.7609C233.948 26.2906 230.937 23.0318 225.892 23.0318ZM199.009 23.0318C192.468 23.0318 188.417 27.1032 188.417 33.6556V36.8815C188.417 43.1828 192.515 47.0965 199.113 47.0965C203.526 47.0965 206.619 45.4838 208.566 42.1662L205.129 40.1939C203.691 42.1075 201.394 43.2929 199.115 43.2929C195.775 43.2929 193.781 41.2366 193.781 37.79V36.8768H209.253V33.0663C209.253 26.9622 205.235 23.0318 199.014 23.0318H199.009ZM204.208 33.1623H193.762V32.6108C193.762 28.8286 195.624 26.7415 199.004 26.7415C202.26 26.7415 204.204 28.7978 204.204 32.2443L204.208 33.1623ZM289 19.7943V15.3993H269.825V19.7943H276.548V42.1473H269.825V46.5423H289V42.1473H282.275V19.7943H289ZM143.61 14.7655C135.046 14.7655 129.723 20.0879 129.723 28.6598V33.2939C129.723 41.8632 135.044 47.1882 143.61 47.1882C152.176 47.1882 157.498 41.8632 157.498 33.2939V28.6593C157.496 20.0785 152.166 14.7655 143.61 14.7655ZM151.769 33.6106C151.769 39.3016 148.796 42.5648 143.61 42.5648C138.425 42.5648 135.454 39.3016 135.454 33.6106V28.34C135.454 22.649 138.429 19.3859 143.613 19.3859C148.796 19.3859 151.771 22.6486 151.771 28.34L151.769 33.6106ZM174.91 23.0313C172 23.0313 169.482 24.2335 168.168 26.2456L167.572 27.161V23.576H162.3V54.4572H167.846V43.2715L168.439 44.1496C169.686 45.995 172.123 47.096 174.957 47.096C179.737 47.096 184.561 43.9803 184.561 37.0169V33.1105C184.561 28.0932 181.588 23.0313 174.91 23.0313ZM179.015 36.7469C179.015 40.4498 176.849 42.7503 173.365 42.7503C170.117 42.7503 167.85 40.3182 167.85 36.8386V33.3826C167.85 29.861 170.136 27.3818 173.413 27.3818C176.87 27.3818 179.019 29.6802 179.019 33.3826L179.015 36.7469ZM249.271 15.4015L238.083 46.5518H243.716L245.858 39.8746H258.719L258.741 39.9406L260.859 46.5518H266.49L255.283 15.3989L249.271 15.4015ZM247.233 35.4822L252.279 19.733L257.274 35.4822H247.233ZM118.88 24.0976C119.487 22.2804 119.698 20.3548 119.498 18.4498C119.299 16.5447 118.693 14.7043 117.722 13.0516C116.281 10.5536 114.083 8.57597 111.443 7.40349C108.804 6.23102 105.859 5.92414 103.034 6.52704C101.759 5.09396 100.193 3.94883 98.4386 3.1682C96.6846 2.38758 94.7837 1.98946 92.8631 2.00047C89.9731 1.99387 87.1558 2.90308 84.8175 4.59692C82.4792 6.29076 80.7407 8.68167 79.853 11.4248C77.9717 11.8097 76.1945 12.5908 74.6401 13.7158C73.0858 14.8409 71.7902 16.2839 70.8399 17.9485C69.3911 20.4421 68.773 23.33 69.0746 26.1964C69.3762 29.0627 70.5819 31.7597 72.5182 33.899C71.9137 35.7148 71.7043 37.6382 71.904 39.541C72.1037 41.4439 72.7079 43.2824 73.6763 44.9339C75.1158 47.4366 77.3152 49.4184 79.9572 50.5936C82.5992 51.7687 85.5472 52.0764 88.3759 51.4722C89.6492 52.9038 91.2141 54.0481 92.966 54.8287C94.7179 55.6093 96.6166 56.0082 98.5354 55.9988C101.425 56.0053 104.243 55.0961 106.581 53.4023C108.919 51.7085 110.658 49.3175 111.545 46.5745C113.426 46.1891 115.203 45.4078 116.757 44.2827C118.311 43.1576 119.606 41.7147 120.556 40.0503C122.008 37.5574 122.629 34.6686 122.328 31.8011C122.026 28.9335 120.819 26.2361 118.88 24.0976ZM98.5354 52.4772C96.1622 52.4791 93.8641 51.648 92.0437 50.1295C92.1236 50.0849 92.2791 50.0073 92.3685 49.9486L103.149 43.7412C103.42 43.5879 103.645 43.3655 103.8 43.0968C103.956 42.828 104.037 42.5228 104.035 42.2125V27.0513L108.589 29.6738C108.614 29.6855 108.635 29.7033 108.651 29.7255C108.666 29.7478 108.676 29.7736 108.679 29.8006V42.3492C108.679 47.9382 104.139 52.4708 98.5354 52.4772ZM76.7408 43.1943C75.5526 41.1457 75.1238 38.7458 75.5291 36.4139C75.6086 36.4632 75.7499 36.5476 75.8488 36.6038L86.6322 42.8138C86.9007 42.9704 87.2062 43.053 87.5173 43.053C87.8285 43.053 88.134 42.9704 88.4025 42.8138L101.557 35.2263V40.4712C101.56 40.4981 101.555 40.5251 101.544 40.5497C101.533 40.5743 101.516 40.5957 101.494 40.6118L90.5961 46.8852C85.744 49.6718 79.5462 48.0153 76.7408 43.1823V43.1943ZM73.9165 19.7163C75.0989 17.6644 76.9681 16.0934 79.196 15.2789V28.0602C79.1943 28.3704 79.2754 28.6755 79.431 28.9441C79.5865 29.2128 79.8109 29.4353 80.0812 29.5889L93.2395 37.1673L88.6681 39.7992C88.6458 39.8142 88.6201 39.8234 88.5934 39.8259C88.5666 39.8284 88.5397 39.8241 88.5151 39.8133L77.6191 33.5382C72.7713 30.7409 71.1102 24.5566 73.9066 19.7168L73.9165 19.7163ZM111.343 28.4035L98.1843 20.8246L102.735 18.1996C102.757 18.185 102.783 18.1761 102.809 18.1736C102.836 18.1711 102.863 18.1752 102.887 18.1855L113.784 24.461C115.453 25.4228 116.813 26.8388 117.704 28.5434C118.595 30.2481 118.981 32.1707 118.817 34.0862C118.652 36.0017 117.944 37.8308 116.775 39.3594C115.606 40.888 114.024 42.0527 112.216 42.7173V29.939C112.219 29.6281 112.139 29.3219 111.985 29.052C111.83 28.7821 111.606 28.5582 111.335 28.4035H111.343ZM115.879 21.5948C115.773 21.5298 115.666 21.4664 115.559 21.4045L104.776 15.1949C104.507 15.0382 104.202 14.9557 103.891 14.9557C103.579 14.9557 103.274 15.0382 103.005 15.1949L89.8471 22.7712V17.5285C89.8463 17.5015 89.8518 17.4747 89.8633 17.4503C89.8748 17.4259 89.8919 17.4045 89.9133 17.3879L100.809 11.1145C102.479 10.1544 104.388 9.68857 106.313 9.77137C108.239 9.85416 110.1 10.4822 111.681 11.582C113.261 12.6818 114.495 14.2078 115.238 15.9815C115.98 17.7551 116.201 19.7031 115.874 21.5973L115.879 21.5948ZM87.3639 30.9483L82.8071 28.3259C82.7837 28.313 82.7637 28.2949 82.7485 28.273C82.7334 28.251 82.7236 28.2259 82.7199 28.1995V15.65C82.7183 13.7267 83.2665 11.8427 84.3002 10.219C85.3339 8.59535 86.8103 7.29922 88.5562 6.48259C90.3021 5.66596 92.2453 5.36267 94.1579 5.60828C96.0705 5.85389 97.8732 6.63822 99.3548 7.86932C99.2749 7.91432 99.1314 7.99147 99.03 8.05018L88.2491 14.2576C87.9789 14.4112 87.7545 14.6337 87.5989 14.9024C87.4434 15.171 87.3623 15.4761 87.3639 15.7863V30.9483ZM89.8381 25.6263L95.699 22.25L101.558 25.6263V32.3738L95.6969 35.7496L89.8359 32.3738L89.8381 25.6263Z" fill="white"/>
</g>
<defs>
<clipPath id="clip0_99_83">
<rect width="220" height="54" fill="white" transform="translate(69 2)"/>
</clipPath>
</defs>
</svg>
