<svg width="358" height="58" viewBox="0 0 358 58" fill="none" xmlns="http://www.w3.org/2000/svg">
<g clip-path="url(#clip0_99_83)">
<path d="M70.219 28.7839L59.784 39.2189C59.6042 39.4177 59.5076 39.6781 59.5144 39.9461C59.5211 40.2141 59.6305 40.4693 59.8201 40.6589C60.0097 40.8484 60.2649 40.9579 60.5329 40.9646C60.8009 40.9713 61.0612 40.8748 61.26 40.6949L71.695 30.2599C71.8749 30.0611 71.9714 29.8008 71.9647 29.5327C71.958 29.2647 71.8485 29.0096 71.659 28.82C71.4694 28.6304 71.2142 28.521 70.9462 28.5142C70.6782 28.5075 70.4179 28.6041 70.219 28.7839ZM68.132 17.3049L48.305 37.1319C48.1252 37.3307 48.0286 37.5911 48.0354 37.8591C48.0421 38.1271 48.1515 38.3823 48.3411 38.5719C48.5307 38.7614 48.7859 38.8709 49.0539 38.8776C49.3219 38.8843 49.5822 38.7878 49.781 38.6079L69.608 18.7809C69.7879 18.5821 69.8844 18.3218 69.8777 18.0537C69.871 17.7857 69.7615 17.5306 69.572 17.341C69.3824 17.1514 69.1272 17.042 68.8592 17.0352C68.5912 17.0285 68.3309 17.1251 68.132 17.3049Z" fill="white"/>
</g>
<path d="M107.045 26.2102L102.426 27.0284C102.233 26.4375 101.926 25.875 101.506 25.3409C101.097 24.8068 100.54 24.3693 99.8352 24.0284C99.1307 23.6875 98.25 23.517 97.1932 23.517C95.75 23.517 94.5455 23.8409 93.5795 24.4886C92.6136 25.125 92.1307 25.9489 92.1307 26.9602C92.1307 27.8352 92.4545 28.5398 93.1023 29.0739C93.75 29.608 94.7955 30.0455 96.2386 30.3864L100.398 31.3409C102.807 31.8977 104.602 32.7557 105.784 33.9148C106.966 35.0739 107.557 36.5795 107.557 38.4318C107.557 40 107.102 41.3977 106.193 42.625C105.295 43.8409 104.04 44.7955 102.426 45.4886C100.824 46.1818 98.9659 46.5284 96.8523 46.5284C93.9205 46.5284 91.5284 45.9034 89.6761 44.6534C87.8239 43.392 86.6875 41.6023 86.267 39.2841L91.1932 38.5341C91.5 39.8182 92.1307 40.7898 93.0852 41.4489C94.0398 42.0966 95.2841 42.4205 96.8182 42.4205C98.4886 42.4205 99.8239 42.0739 100.824 41.3807C101.824 40.6761 102.324 39.8182 102.324 38.8068C102.324 37.9886 102.017 37.3011 101.403 36.7443C100.801 36.1875 99.875 35.767 98.625 35.483L94.1932 34.5114C91.75 33.9545 89.9432 33.0682 88.7727 31.8523C87.6136 30.6364 87.0341 29.0966 87.0341 27.233C87.0341 25.6875 87.4659 24.3352 88.3295 23.1761C89.1932 22.017 90.3864 21.1136 91.9091 20.4659C93.4318 19.8068 95.1761 19.4773 97.142 19.4773C99.9716 19.4773 102.199 20.0909 103.824 21.3182C105.449 22.5341 106.523 24.1648 107.045 26.2102ZM118.257 30.4545V46H113.161V11.0909H118.189V24.0795H118.513C119.126 22.6705 120.064 21.5511 121.325 20.7216C122.587 19.892 124.234 19.4773 126.268 19.4773C128.064 19.4773 129.632 19.8466 130.973 20.5852C132.325 21.3239 133.371 22.4261 134.109 23.892C134.859 25.3466 135.234 27.1648 135.234 29.3466V46H130.138V29.9602C130.138 28.0398 129.643 26.5511 128.655 25.4943C127.666 24.4261 126.291 23.892 124.53 23.892C123.325 23.892 122.246 24.1477 121.291 24.6591C120.348 25.1705 119.604 25.9205 119.058 26.9091C118.524 27.8864 118.257 29.0682 118.257 30.4545ZM149.655 46.5795C147.996 46.5795 146.496 46.2727 145.155 45.6591C143.814 45.0341 142.751 44.1307 141.967 42.9489C141.195 41.767 140.808 40.3182 140.808 38.6023C140.808 37.125 141.092 35.9091 141.661 34.9545C142.229 34 142.996 33.2443 143.962 32.6875C144.928 32.1307 146.007 31.7102 147.2 31.4261C148.393 31.142 149.609 30.9261 150.848 30.7784C152.416 30.5966 153.689 30.4489 154.666 30.3352C155.643 30.2102 156.354 30.0114 156.797 29.7386C157.24 29.4659 157.462 29.0227 157.462 28.4091V28.2898C157.462 26.8011 157.041 25.6477 156.2 24.8295C155.371 24.0114 154.132 23.6023 152.484 23.6023C150.768 23.6023 149.416 23.983 148.428 24.7443C147.45 25.4943 146.774 26.3295 146.399 27.25L141.609 26.1591C142.178 24.5682 143.007 23.2841 144.098 22.3068C145.2 21.3182 146.467 20.6023 147.899 20.1591C149.331 19.7045 150.837 19.4773 152.416 19.4773C153.462 19.4773 154.57 19.6023 155.74 19.8523C156.922 20.0909 158.024 20.5341 159.047 21.1818C160.081 21.8295 160.928 22.7557 161.587 23.9602C162.246 25.1534 162.575 26.7045 162.575 28.6136V46H157.598V42.4205H157.393C157.064 43.0795 156.57 43.7273 155.911 44.3636C155.251 45 154.405 45.5284 153.371 45.9489C152.337 46.3693 151.098 46.5795 149.655 46.5795ZM150.763 42.4886C152.172 42.4886 153.376 42.2102 154.376 41.6534C155.388 41.0966 156.155 40.3693 156.678 39.4716C157.212 38.5625 157.479 37.5909 157.479 36.5568V33.1818C157.297 33.3636 156.945 33.5341 156.422 33.6932C155.911 33.8409 155.325 33.9716 154.666 34.0852C154.007 34.1875 153.365 34.2841 152.74 34.375C152.115 34.4545 151.592 34.5227 151.172 34.5795C150.183 34.7045 149.28 34.9148 148.462 35.2102C147.655 35.5057 147.007 35.9318 146.518 36.4886C146.041 37.0341 145.803 37.7614 145.803 38.6705C145.803 39.9318 146.268 40.8864 147.2 41.5341C148.132 42.1705 149.32 42.4886 150.763 42.4886ZM179.165 46.5114C177.051 46.5114 175.165 45.9716 173.506 44.892C171.858 43.8011 170.563 42.25 169.619 40.2386C168.688 38.2159 168.222 35.7898 168.222 32.9602C168.222 30.1307 168.693 27.7102 169.636 25.6989C170.591 23.6875 171.898 22.1477 173.557 21.0795C175.216 20.0114 177.097 19.4773 179.199 19.4773C180.824 19.4773 182.131 19.75 183.119 20.2955C184.119 20.8295 184.892 21.4545 185.438 22.1705C185.994 22.8864 186.426 23.517 186.733 24.0625H187.04V11.0909H192.136V46H187.159V41.9261H186.733C186.426 42.483 185.983 43.1193 185.403 43.8352C184.835 44.5511 184.051 45.1761 183.051 45.7102C182.051 46.2443 180.756 46.5114 179.165 46.5114ZM180.29 42.1648C181.756 42.1648 182.994 41.7784 184.006 41.0057C185.028 40.2216 185.801 39.1364 186.324 37.75C186.858 36.3636 187.125 34.75 187.125 32.9091C187.125 31.0909 186.864 29.5 186.341 28.1364C185.818 26.7727 185.051 25.7102 184.04 24.9489C183.028 24.1875 181.778 23.8068 180.29 23.8068C178.756 23.8068 177.477 24.2045 176.455 25C175.432 25.7955 174.659 26.8807 174.136 28.2557C173.625 29.6307 173.369 31.1818 173.369 32.9091C173.369 34.6591 173.631 36.233 174.153 37.6307C174.676 39.0284 175.449 40.1364 176.472 40.9545C177.506 41.7614 178.778 42.1648 180.29 42.1648ZM210.439 46.5284C207.905 46.5284 205.723 45.9545 203.893 44.8068C202.075 43.6477 200.678 42.0511 199.7 40.017C198.723 37.983 198.234 35.6534 198.234 33.0284C198.234 30.3693 198.734 28.0227 199.734 25.9886C200.734 23.9432 202.143 22.3466 203.962 21.1989C205.78 20.0511 207.922 19.4773 210.388 19.4773C212.376 19.4773 214.149 19.8466 215.706 20.5852C217.263 21.3125 218.518 22.3352 219.473 23.6534C220.439 24.9716 221.013 26.5114 221.195 28.2727H216.234C215.962 27.0455 215.337 25.9886 214.359 25.1023C213.393 24.2159 212.098 23.7727 210.473 23.7727C209.053 23.7727 207.808 24.1477 206.74 24.8977C205.683 25.6364 204.859 26.6932 204.268 28.0682C203.678 29.4318 203.382 31.0455 203.382 32.9091C203.382 34.8182 203.672 36.4659 204.251 37.8523C204.831 39.2386 205.649 40.3125 206.706 41.0739C207.774 41.8352 209.03 42.2159 210.473 42.2159C211.439 42.2159 212.314 42.0398 213.098 41.6875C213.893 41.3239 214.558 40.8068 215.092 40.1364C215.638 39.4659 216.018 38.6591 216.234 37.7159H221.195C221.013 39.4091 220.462 40.9205 219.541 42.25C218.621 43.5795 217.388 44.625 215.842 45.3864C214.308 46.1477 212.507 46.5284 210.439 46.5284ZM231.741 30.4545V46H226.645V19.8182H231.537V24.0795H231.861C232.463 22.6932 233.406 21.5795 234.69 20.7386C235.986 19.8977 237.616 19.4773 239.582 19.4773C241.366 19.4773 242.929 19.8523 244.27 20.6023C245.611 21.3409 246.651 22.4432 247.389 23.9091C248.128 25.375 248.497 27.1875 248.497 29.3466V46H243.401V29.9602C243.401 28.0625 242.906 26.5795 241.918 25.5114C240.929 24.4318 239.571 23.892 237.844 23.892C236.662 23.892 235.611 24.1477 234.69 24.6591C233.781 25.1705 233.06 25.9205 232.526 26.9091C232.003 27.8864 231.741 29.0682 231.741 30.4545ZM268.628 9.45454L257.378 51.25H252.827L264.077 9.45454H268.628ZM289.543 35.142V19.8182H294.656V46H289.645V41.4659H289.372C288.77 42.8636 287.804 44.0284 286.474 44.9602C285.156 45.8807 283.514 46.3409 281.548 46.3409C279.866 46.3409 278.378 45.9716 277.082 45.233C275.798 44.483 274.787 43.375 274.048 41.9091C273.321 40.4432 272.957 38.6307 272.957 36.4716V19.8182H278.054V35.858C278.054 37.642 278.548 39.0625 279.537 40.1193C280.526 41.1761 281.81 41.7045 283.389 41.7045C284.344 41.7045 285.293 41.4659 286.236 40.9886C287.19 40.5114 287.98 39.7898 288.605 38.8239C289.241 37.858 289.554 36.6307 289.543 35.142ZM301.504 46V19.8182H306.601V46H301.504ZM304.078 15.7784C303.192 15.7784 302.43 15.483 301.794 14.892C301.169 14.2898 300.857 13.5739 300.857 12.7443C300.857 11.9034 301.169 11.1875 301.794 10.5966C302.43 9.99432 303.192 9.69318 304.078 9.69318C304.964 9.69318 305.72 9.99432 306.345 10.5966C306.982 11.1875 307.3 11.9034 307.3 12.7443C307.3 13.5739 306.982 14.2898 306.345 14.892C305.72 15.483 304.964 15.7784 304.078 15.7784Z" fill="white"/>
<defs>
<clipPath id="clip0_99_83">
<rect width="24" height="24" fill="white" transform="translate(48 17)"/>
</clipPath>
</defs>
</svg>
