<svg width="358" height="58" viewBox="0 0 358 58" fill="none" xmlns="http://www.w3.org/2000/svg">
<g clip-path="url(#clip0_99_83)">
<path d="M36.9943 7C27.1269 7 20.9766 11.9728 18.5293 21.8234C22.2352 16.8702 26.5703 15.0438 31.4648 16.2996C34.2617 16.9988 36.2978 19.0322 38.5242 21.3368C42.1601 25.0398 46.3554 29.3135 55.5236 29.3135C65.377 29.3135 71.5301 24.3406 73.9773 14.4872C70.2743 19.4461 65.9363 21.2697 61.0418 20.0139C58.2449 19.3146 56.2228 17.2841 53.9825 14.9795C50.3465 11.2764 46.1484 7 36.9943 7ZM159.839 8.3341V46.2989H165.432V8.33131L159.839 8.3341ZM150.542 9.24029C148.584 9.24029 146.979 10.8457 146.979 12.8007C146.979 14.6914 148.587 16.3723 150.542 16.3723C152.497 16.3723 154.178 14.6942 154.113 12.8007C154.113 10.8457 152.5 9.24029 150.542 9.24029ZM214.87 9.24029C212.912 9.24029 211.307 10.8457 211.307 12.8007C211.307 14.6942 212.915 16.3723 214.87 16.3723C216.903 16.3723 218.506 14.6942 218.442 12.8007C218.442 10.8457 216.828 9.24029 214.87 9.24029ZM274.589 9.87239V23.9239C272.631 21.1913 269.552 19.5216 265.499 19.5216C258.428 19.5216 252.563 25.465 252.563 33.2207C252.563 40.9121 258.428 46.931 265.499 46.931C269.552 46.931 272.631 45.2529 274.589 42.5175V46.2989H280.183V9.87519L274.589 9.87239ZM104.472 11.6204L98.8779 13.293V20.2852H94.1148V25.6719H98.8779V38.1907C98.8779 44.962 102.301 47.3477 110.972 46.2989V41.2617C106.701 41.4687 104.539 41.5442 104.539 38.1907V25.6719H110.896V20.2852H104.472V11.6204ZM126.497 19.5216C119.427 19.5216 113.562 25.465 113.562 33.2207C113.562 40.9121 119.429 46.931 126.497 46.931C130.553 46.931 133.621 45.2529 135.587 42.5175V46.2989H141.181V20.2852H135.587V23.9211C133.618 21.1913 130.55 19.5216 126.497 19.5216ZM237.88 19.5859C234.384 19.5859 231.587 20.92 229.839 23.7169V20.3607H224.245V46.3632H229.839V32.3788C229.839 27.0704 232.776 24.9056 236.481 24.9056C239.977 24.9056 242.282 26.9277 242.282 30.9161V46.2989H247.876V30.2812C247.876 23.5743 243.681 19.5859 237.88 19.5859ZM298.986 19.5859C291.088 19.5859 285.22 25.5265 285.22 33.2962C285.22 40.9876 291.166 46.9981 298.986 46.9981C304.101 46.9981 308.568 44.3411 310.666 40.2129L305.847 37.4915C304.577 39.8605 302.065 41.4687 298.919 41.4687C294.374 41.4687 290.878 37.9726 290.878 33.2962C290.878 28.6086 294.31 25.1126 298.919 25.1126C302.065 25.1126 304.655 26.6536 305.771 29.1009L310.599 26.304C308.501 22.2402 304.101 19.5859 298.986 19.5859ZM323.808 19.6615C318.5 19.6615 314.302 22.7324 314.302 27.627C314.302 36.921 328.286 34.3478 328.286 38.9543C328.286 41.052 326.395 41.8966 323.884 41.8966C321.009 41.8966 318.911 40.4982 318.083 38.1152L313.253 40.9121C314.934 44.6152 318.707 46.9981 323.884 46.9981C329.477 46.9981 334.022 44.1369 334.022 38.9571C334.022 29.3079 320.038 32.1747 320.038 27.42C320.038 25.602 321.789 24.6874 323.808 24.7629C325.984 24.7629 327.797 25.6691 328.703 27.7025L333.466 25.037C331.639 21.6193 328.082 19.6615 323.808 19.6615ZM347.8 19.6615C342.477 19.6615 338.285 22.7324 338.285 27.627C338.285 36.921 352.269 34.3478 352.269 38.9543C352.269 41.052 350.376 41.8966 347.864 41.8966C345 41.8966 342.902 40.4982 342.063 38.1152L337.236 40.9121C338.914 44.6152 342.684 46.9981 347.864 46.9981C353.458 46.9981 358.003 44.1369 358.003 38.9571C358.003 29.3079 344.018 32.1747 344.018 27.42C344.018 25.602 345.769 24.6874 347.8 24.7629C349.965 24.7629 351.777 25.6691 352.694 27.7025L357.449 25.037C355.62 21.6193 352.059 19.6615 347.8 19.6615ZM147.748 20.2852V46.2961H153.341V20.2852H147.748ZM169.709 20.2852L177.89 46.2961H183.408L188.862 28.7513L194.246 46.2989H199.775L207.956 20.2852H202.013L196.894 38.2579L191.524 20.2852H186.14L180.678 38.2579L175.649 20.2852H169.706H169.709ZM212.076 20.2852V46.2961H217.67V20.2852H212.076ZM127.328 24.9727C132.015 24.9727 135.587 28.4688 135.587 33.2962C135.587 38.1124 132.015 41.6113 127.328 41.6113C122.651 41.6113 119.155 38.1152 119.077 33.2962C119.077 28.466 122.654 24.9727 127.328 24.9727ZM266.341 24.9727C271.017 24.9727 274.589 28.4688 274.589 33.2962C274.589 38.1124 271.017 41.6113 266.338 41.6113C261.653 41.6113 258.079 38.1152 258.079 33.2962C258.079 28.466 261.656 24.9727 266.341 24.9727ZM18.4678 29.168C8.60039 29.168 2.45006 34.1297 0 43.9915C3.70306 39.0242 8.04102 37.209 12.9355 38.4648C15.7324 39.1641 17.7657 41.1974 19.9921 43.4992C23.6308 47.2051 27.8233 51.4759 36.9915 51.4759C46.8449 51.4759 52.998 46.5059 55.4452 36.6525C51.7422 41.6113 47.4042 43.4377 42.5097 42.1679C39.7128 41.4687 37.6935 39.4465 35.4532 37.1419C31.8816 33.4249 27.6863 29.168 18.4678 29.168Z" fill="white"/>
</g>
<defs>
<clipPath id="clip0_99_83">
<rect width="358" height="58" fill="white"/>
</clipPath>
</defs>
</svg>
