<svg width="358" height="58" viewBox="0 0 358 58" fill="none" xmlns="http://www.w3.org/2000/svg">
<g clip-path="url(#clip0_99_83)">
<path d="M178.726 13.7386C169.276 13.7386 162.463 19.9209 162.463 29.1941C162.463 38.4678 170.132 44.65 179.582 44.65C185.292 44.65 190.324 42.3832 193.441 38.5621L186.892 34.7671C185.163 36.6646 182.535 37.7722 179.582 37.7722C175.482 37.7722 171.998 35.6258 170.705 32.1911H194.69C194.878 31.2291 194.989 30.2329 194.989 29.1856C194.989 19.9209 188.176 13.7386 178.726 13.7386ZM170.629 26.189C171.699 22.7629 174.627 20.6075 178.718 20.6075C182.818 20.6075 185.746 22.7629 186.807 26.189H170.629ZM270.898 13.7381C261.448 13.7381 254.634 19.9209 254.634 29.1941C254.634 38.4678 262.303 44.65 271.754 44.65C277.463 44.65 282.496 42.3832 285.612 38.5621L279.063 34.7671C277.334 36.6646 274.707 37.7722 271.754 37.7722C267.653 37.7722 264.169 35.6258 262.877 32.1911H286.86C287.049 31.2291 287.16 30.2329 287.16 29.1856C287.16 19.9209 280.346 13.7381 270.897 13.7381M262.808 26.189C263.878 22.7629 266.805 20.6075 270.897 20.6075C274.996 20.6075 277.924 22.7629 278.985 26.189H262.808ZM229.399 29.1941C229.399 34.3461 232.755 37.7807 237.959 37.7807C241.485 37.7807 244.13 36.1753 245.491 33.5562L252.065 37.3602C249.343 41.9109 244.242 44.65 237.959 44.65C228.5 44.65 221.696 38.4673 221.696 29.1941C221.696 19.9209 228.509 13.7386 237.959 13.7386C244.242 13.7386 249.335 16.4777 252.065 21.0285L245.491 24.8325C244.13 22.2134 241.485 20.6079 237.959 20.6079C232.763 20.6079 229.399 24.0416 229.399 29.1941ZM300 4.29332V43.7914H292.296V4.29332H300ZM89.6283 0L121.256 54.954H58L89.6283 0ZM168.703 4.29332L144.984 45.5087L121.265 4.29332H130.159L144.984 30.0532L159.809 4.29332H168.703ZM219.128 14.5973V22.9175C218.272 22.6685 217.365 22.4969 216.389 22.4969C211.416 22.4969 207.829 25.9315 207.829 31.0835V43.7914H200.125V14.5973H207.829V22.4964C207.829 18.1344 212.888 14.5973 219.128 14.5973Z" fill="white"/>
</g>
<defs>
<clipPath id="clip0_99_83">
<rect width="242" height="55" fill="white" transform="translate(58)"/>
</clipPath>
</defs>
</svg>
